<svg width="38" height="38" viewBox="0 0 38 38" fill="none" xmlns="http://www.w3.org/2000/svg">
<rect width="38" height="38" rx="6" fill="#37C650" fill-opacity="0.1"/>
<path d="M10.8502 15.6201C10.7042 14.9626 10.7266 14.2789 10.9153 13.6324C11.1041 12.9859 11.4529 12.3975 11.9297 11.9218C12.4064 11.4461 12.9955 11.0984 13.6424 10.9111C14.2893 10.7237 14.973 10.7028 15.6302 10.8501C15.9919 10.2844 16.4902 9.81886 17.0791 9.49638C17.6681 9.17391 18.3287 9.00488 19.0002 9.00488C19.6716 9.00488 20.3323 9.17391 20.9212 9.49638C21.5102 9.81886 22.0085 10.2844 22.3702 10.8501C23.0284 10.7021 23.7133 10.723 24.3612 10.9108C25.0091 11.0986 25.599 11.4472 26.076 11.9243C26.5531 12.4013 26.9017 12.9912 27.0895 13.6391C27.2773 14.287 27.2982 14.9719 27.1502 15.6301C27.7159 15.9918 28.1814 16.4901 28.5039 17.079C28.8264 17.668 28.9954 18.3286 28.9954 19.0001C28.9954 19.6715 28.8264 20.3322 28.5039 20.9211C28.1814 21.5101 27.7159 22.0084 27.1502 22.3701C27.2975 23.0273 27.2765 23.711 27.0892 24.3579C26.9018 25.0048 26.5542 25.5939 26.0785 26.0706C25.6027 26.5473 25.0144 26.8962 24.3679 27.0849C23.7213 27.2736 23.0377 27.2961 22.3802 27.1501C22.019 27.718 21.5203 28.1855 20.9303 28.5094C20.3404 28.8333 19.6782 29.0032 19.0052 29.0032C18.3322 29.0032 17.67 28.8333 17.0801 28.5094C16.4901 28.1855 15.9914 27.718 15.6302 27.1501C14.973 27.2974 14.2893 27.2765 13.6424 27.0891C12.9955 26.9018 12.4064 26.5541 11.9297 26.0784C11.4529 25.6027 11.1041 25.0143 10.9153 24.3678C10.7266 23.7213 10.7042 23.0376 10.8502 22.3801C10.2801 22.0193 9.81061 21.5203 9.48524 20.9293C9.15988 20.3384 8.98926 19.6747 8.98926 19.0001C8.98926 18.3255 9.15988 17.6618 9.48524 17.0709C9.81061 16.4799 10.2801 15.9809 10.8502 15.6201Z" stroke="#37C650" stroke-width="2" stroke-linecap="round" stroke-linejoin="round"/>
<path d="M16 19L18 21L22 17" stroke="#37C650" stroke-width="2" stroke-linecap="round" stroke-linejoin="round"/>
</svg>
