<svg width="57" height="57" viewBox="0 0 57 57" fill="none" xmlns="http://www.w3.org/2000/svg">
<rect width="57" height="57" rx="10" fill="#3E3DF3" fill-opacity="0.15"/>
<path d="M18.5 18.5V37.1667C18.5 37.7855 18.7458 38.379 19.1834 38.8166C19.621 39.2542 20.2145 39.5 20.8333 39.5H39.5" stroke="#3E3DF3" stroke-width="2.33333" stroke-linecap="round" stroke-linejoin="round"/>
<path d="M23.168 28.0754C23.168 27.921 23.2293 27.7729 23.3383 27.6636L25.6716 25.3302C25.7258 25.2759 25.7902 25.2328 25.8611 25.2034C25.9319 25.174 26.0079 25.1589 26.0846 25.1589C26.1614 25.1589 26.2373 25.174 26.3082 25.2034C26.3791 25.2328 26.4434 25.2759 26.4976 25.3302L30.3383 29.1709C30.3925 29.2252 30.4569 29.2683 30.5277 29.2977C30.5986 29.3271 30.6746 29.3423 30.7513 29.3423C30.828 29.3423 30.904 29.3271 30.9749 29.2977C31.0457 29.2683 31.1101 29.2252 31.1643 29.1709L36.1716 24.1636C36.2531 24.0818 36.3571 24.0261 36.4703 24.0035C36.5834 23.9809 36.7008 23.9923 36.8075 24.0364C36.9141 24.0805 37.0053 24.1553 37.0695 24.2512C37.1337 24.3471 37.1679 24.46 37.168 24.5754V33.6672C37.168 33.9766 37.0451 34.2734 36.8263 34.4922C36.6075 34.711 36.3107 34.8339 36.0013 34.8339H24.3346C24.0252 34.8339 23.7285 34.711 23.5097 34.4922C23.2909 34.2734 23.168 33.9766 23.168 33.6672V28.0754Z" stroke="#3E3DF3" stroke-width="2.33333" stroke-linecap="round" stroke-linejoin="round"/>
</svg>
