<svg width="57" height="57" viewBox="0 0 57 57" fill="none" xmlns="http://www.w3.org/2000/svg">
<rect width="57" height="57" rx="10" fill="#FF5652" fill-opacity="0.15"/>
<path d="M28.9987 40.6673C35.442 40.6673 40.6654 35.444 40.6654 29.0007C40.6654 22.5573 35.442 17.334 28.9987 17.334C22.5554 17.334 17.332 22.5573 17.332 29.0007C17.332 35.444 22.5554 40.6673 28.9987 40.6673Z" stroke="#FF5652" stroke-width="2.33333" stroke-linecap="round" stroke-linejoin="round"/>
<path d="M28.9987 17.334C26.003 20.4795 24.332 24.6568 24.332 29.0007C24.332 33.3445 26.003 37.5218 28.9987 40.6673C31.9944 37.5218 33.6654 33.3445 33.6654 29.0007C33.6654 24.6568 31.9944 20.4795 28.9987 17.334Z" stroke="#FF5652" stroke-width="2.33333" stroke-linecap="round" stroke-linejoin="round"/>
<path d="M17.332 29H40.6654" stroke="#FF5652" stroke-width="2.33333" stroke-linecap="round" stroke-linejoin="round"/>
</svg>
