<svg width="57" height="57" viewBox="0 0 57 57" fill="none" xmlns="http://www.w3.org/2000/svg">
<rect width="57" height="57" rx="10" fill="#874C4C" fill-opacity="0.15"/>
<path d="M38.3346 30.1659C38.3346 35.9992 34.2513 38.9159 29.398 40.6076C29.1438 40.6937 28.8678 40.6896 28.6163 40.5959C23.7513 38.9159 19.668 35.9992 19.668 30.1659V21.9992C19.668 21.6898 19.7909 21.3931 20.0097 21.1743C20.2285 20.9555 20.5252 20.8326 20.8346 20.8326C23.168 20.8326 26.0846 19.4326 28.1146 17.6592C28.3618 17.4481 28.6762 17.332 29.0013 17.332C29.3264 17.332 29.6408 17.4481 29.888 17.6592C31.9296 19.4442 34.8346 20.8326 37.168 20.8326C37.4774 20.8326 37.7741 20.9555 37.9929 21.1743C38.2117 21.3931 38.3346 21.6898 38.3346 21.9992V30.1659Z" stroke="#874C4C" stroke-width="2.33333" stroke-linecap="round" stroke-linejoin="round"/>
<path d="M25.5 29H32.5" stroke="#874C4C" stroke-width="2.33333" stroke-linecap="round" stroke-linejoin="round"/>
<path d="M29 25.5V32.5" stroke="#874C4C" stroke-width="2.33333" stroke-linecap="round" stroke-linejoin="round"/>
</svg>
