<svg width="57" height="57" viewBox="0 0 57 57" fill="none" xmlns="http://www.w3.org/2000/svg">
<rect width="57" height="57" rx="10" fill="#C742E2" fill-opacity="0.15"/>
<path d="M29 33.666V39.4993" stroke="#C742E2" stroke-width="2.33333" stroke-linecap="round" stroke-linejoin="round"/>
<path d="M33.668 31.334V39.5007" stroke="#C742E2" stroke-width="2.33333" stroke-linecap="round" stroke-linejoin="round"/>
<path d="M38.332 26.666V39.4993" stroke="#C742E2" stroke-width="2.33333" stroke-linecap="round" stroke-linejoin="round"/>
<path d="M40.6654 18.5L30.5784 28.587C30.5242 28.6413 30.4598 28.6844 30.3889 28.7138C30.3181 28.7432 30.2421 28.7584 30.1654 28.7584C30.0886 28.7584 30.0127 28.7432 29.9418 28.7138C29.8709 28.6844 29.8066 28.6413 29.7524 28.587L25.9117 24.7463C25.8023 24.637 25.654 24.5755 25.4993 24.5755C25.3446 24.5755 25.1963 24.637 25.0869 24.7463L17.332 32.5" stroke="#C742E2" stroke-width="2.33333" stroke-linecap="round" stroke-linejoin="round"/>
<path d="M19.668 36V39.5" stroke="#C742E2" stroke-width="2.33333" stroke-linecap="round" stroke-linejoin="round"/>
<path d="M24.332 31.334V39.5007" stroke="#C742E2" stroke-width="2.33333" stroke-linecap="round" stroke-linejoin="round"/>
</svg>
