<svg width="57" height="57" viewBox="0 0 57 57" fill="none" xmlns="http://www.w3.org/2000/svg">
<rect width="57" height="57" rx="10" fill="#874C4C" fill-opacity="0.15"/>
<path d="M38.5 24.5C38.5009 24.1303 38.4286 23.7641 38.2872 23.4225C38.1458 23.0809 37.9382 22.7706 37.6763 22.5097L33.4903 18.3237C33.2294 18.0618 32.9192 17.8542 32.5775 17.7128C32.2359 17.5714 31.8697 17.4991 31.5 17.5H19.8333C19.2145 17.5 18.621 17.7458 18.1834 18.1834C17.7458 18.621 17.5 19.2145 17.5 19.8333V36.1667C17.5 36.7855 17.7458 37.379 18.1834 37.8166C18.621 38.2542 19.2145 38.5 19.8333 38.5H36.1667C36.7855 38.5 37.379 38.2542 37.8166 37.8166C38.2542 37.379 38.5 36.7855 38.5 36.1667V24.5Z" stroke="#874C4C" stroke-width="2.33333" stroke-linecap="round" stroke-linejoin="round"/>
<path d="M31.5 17.5V23.3333C31.5 23.6428 31.6229 23.9395 31.8417 24.1583C32.0605 24.3771 32.3572 24.5 32.6667 24.5H38.5" stroke="#874C4C" stroke-width="2.33333" stroke-linecap="round" stroke-linejoin="round"/>
</svg>
