<svg width="57" height="57" viewBox="0 0 57 57" fill="none" xmlns="http://www.w3.org/2000/svg">
<rect width="57" height="57" rx="10" fill="#C742E2" fill-opacity="0.15"/>
<path d="M38.334 22H19.6673C18.3787 22 17.334 23.0447 17.334 24.3333V33.6667C17.334 34.9553 18.3787 36 19.6673 36H38.334C39.6226 36 40.6673 34.9553 40.6673 33.6667V24.3333C40.6673 23.0447 39.6226 22 38.334 22Z" stroke="#C742E2" stroke-width="2.33333" stroke-linecap="round" stroke-linejoin="round"/>
<path d="M28.9993 31.3327C30.288 31.3327 31.3327 30.288 31.3327 28.9993C31.3327 27.7107 30.288 26.666 28.9993 26.666C27.7107 26.666 26.666 27.7107 26.666 28.9993C26.666 30.288 27.7107 31.3327 28.9993 31.3327Z" stroke="#C742E2" stroke-width="2.33333" stroke-linecap="round" stroke-linejoin="round"/>
<path d="M22 29H22.0117M36 29H36.0117" stroke="#C742E2" stroke-width="2.33333" stroke-linecap="round" stroke-linejoin="round"/>
</svg>
