<svg width="57" height="57" viewBox="0 0 57 57" fill="none" xmlns="http://www.w3.org/2000/svg">
<rect width="57" height="57" rx="10" fill="#00003D" fill-opacity="0.15"/>
<path d="M33.7256 28.7191C33.8027 28.4827 33.9533 28.2771 34.1555 28.1323C34.3577 27.9874 34.6008 27.911 34.8495 27.9142C35.0982 27.9173 35.3393 27.9998 35.5378 28.1496C35.7363 28.2995 35.8817 28.5088 35.9528 28.7471L36.8126 30.4411C36.8963 30.6058 37.0179 30.7483 37.1674 30.8568C37.3168 30.9653 37.49 31.0368 37.6725 31.0653L39.5788 31.364C39.8243 31.3649 40.0632 31.4433 40.2615 31.5879C40.4599 31.7325 40.6076 31.936 40.6836 32.1694C40.7596 32.4029 40.76 32.6543 40.6848 32.888C40.6096 33.1217 40.4626 33.3257 40.2648 33.471L38.8975 34.8336C38.7665 34.964 38.6685 35.1235 38.6113 35.2992C38.5541 35.4748 38.5394 35.6615 38.5685 35.844L38.8706 37.7258C38.9537 37.9617 38.9589 38.218 38.8853 38.457C38.8117 38.696 38.6632 38.905 38.4618 39.0533C38.2603 39.2015 38.0166 39.2811 37.7665 39.2803C37.5165 39.2795 37.2733 39.1983 37.0728 39.0488L35.3636 38.1738C35.199 38.0894 35.0166 38.0454 34.8316 38.0454C34.6466 38.0454 34.4643 38.0894 34.2996 38.1738L32.5905 39.0488C32.39 39.1971 32.1473 39.2772 31.898 39.2775C31.6486 39.2778 31.4058 39.1982 31.205 39.0504C31.0042 38.9025 30.856 38.6943 30.7823 38.4561C30.7085 38.218 30.7129 37.9624 30.795 37.727L31.096 35.8451C31.125 35.6627 31.1103 35.476 31.0531 35.3003C30.996 35.1247 30.8979 34.9651 30.767 34.8348L29.4183 33.4896C29.2137 33.3479 29.0598 33.1445 28.9791 32.9091C28.8984 32.6737 28.895 32.4186 28.9696 32.1812C29.0441 31.9437 29.1926 31.7364 29.3934 31.5893C29.5942 31.4423 29.8368 31.3633 30.0856 31.364L31.9908 31.0653C32.1733 31.0368 32.3464 30.9653 32.4959 30.8568C32.6454 30.7483 32.7669 30.6058 32.8506 30.4411L33.7256 28.7191Z" stroke="#00003D" stroke-width="2.33333" stroke-linecap="round" stroke-linejoin="round"/>
<path d="M24.3333 31.5H23.1667C21.929 31.5 20.742 31.9917 19.8668 32.8668C18.9917 33.742 18.5 34.929 18.5 36.1667V38.5" stroke="#00003D" stroke-width="2.33333" stroke-linecap="round" stroke-linejoin="round"/>
<path d="M26.6667 26.8333C29.244 26.8333 31.3333 24.744 31.3333 22.1667C31.3333 19.5893 29.244 17.5 26.6667 17.5C24.0893 17.5 22 19.5893 22 22.1667C22 24.744 24.0893 26.8333 26.6667 26.8333Z" stroke="#00003D" stroke-width="2.33333" stroke-linecap="round" stroke-linejoin="round"/>
</svg>
