<svg width="24" height="24" viewBox="0 0 24 24" fill="none" xmlns="http://www.w3.org/2000/svg">
<rect width="24" height="24" rx="6" fill="#37C650" fill-opacity="0.1"/>
<path d="M6.85306 9.86504C6.76088 9.4498 6.77503 9.018 6.89421 8.60968C7.0134 8.20136 7.23374 7.82974 7.53483 7.52929C7.83592 7.22883 8.20799 7.00926 8.61656 6.89093C9.02513 6.77261 9.45696 6.75936 9.87201 6.85241C10.1005 6.49513 10.4152 6.2011 10.7871 5.99743C11.1591 5.79377 11.5764 5.68701 12.0004 5.68701C12.4245 5.68701 12.8418 5.79377 13.2137 5.99743C13.5857 6.2011 13.9004 6.49513 14.1289 6.85241C14.5445 6.75895 14.9771 6.77214 15.3863 6.89076C15.7955 7.00937 16.1681 7.22955 16.4694 7.53082C16.7707 7.83209 16.9908 8.20467 17.1095 8.61389C17.2281 9.0231 17.2413 9.45567 17.1478 9.87136C17.5051 10.0998 17.7991 10.4145 18.0028 10.7865C18.2064 11.1585 18.3132 11.5757 18.3132 11.9998C18.3132 12.4239 18.2064 12.8411 18.0028 13.2131C17.7991 13.585 17.5051 13.8998 17.1478 14.1282C17.2409 14.5433 17.2276 14.9751 17.1093 15.3836C16.9909 15.7922 16.7714 16.1643 16.4709 16.4654C16.1705 16.7665 15.7988 16.9868 15.3905 17.106C14.9822 17.2252 14.5504 17.2393 14.1352 17.1471C13.907 17.5058 13.5921 17.8011 13.2195 18.0057C12.8469 18.2102 12.4287 18.3175 12.0036 18.3175C11.5785 18.3175 11.1603 18.2102 10.7877 18.0057C10.4151 17.8011 10.1002 17.5058 9.87201 17.1471C9.45696 17.2402 9.02513 17.227 8.61656 17.1086C8.20799 16.9903 7.83592 16.7707 7.53483 16.4703C7.23374 16.1698 7.0134 15.7982 6.89421 15.3899C6.77503 14.9816 6.76088 14.5498 6.85306 14.1345C6.49303 13.9067 6.19648 13.5915 5.99099 13.2182C5.78549 12.845 5.67773 12.4258 5.67773 11.9998C5.67773 11.5737 5.78549 11.1546 5.99099 10.7813C6.19648 10.4081 6.49303 10.0929 6.85306 9.86504Z" stroke="#37C650" stroke-linecap="round" stroke-linejoin="round"/>
<path d="M10.1055 12L11.3686 13.2631L13.8949 10.7368" stroke="#37C650" stroke-linecap="round" stroke-linejoin="round"/>
</svg>
