<svg width="57" height="57" viewBox="0 0 57 57" fill="none" xmlns="http://www.w3.org/2000/svg">
<rect width="57" height="57" rx="10" fill="#3E3DF3" fill-opacity="0.15"/>
<path d="M16.4915 28.9206C16.3908 28.6493 16.3908 28.3509 16.4915 28.0796C17.4723 25.7014 19.1372 23.668 21.2751 22.2372C23.4129 20.8063 25.9275 20.0425 28.5 20.0425C31.0724 20.0425 33.587 20.8063 35.7249 22.2372C37.8627 23.668 39.5276 25.7014 40.5084 28.0796C40.6091 28.3509 40.6091 28.6493 40.5084 28.9206C39.5276 31.2987 37.8627 33.3321 35.7249 34.763C33.587 36.1938 31.0724 36.9577 28.5 36.9577C25.9275 36.9577 23.4129 36.1938 21.2751 34.763C19.1372 33.3321 17.4723 31.2987 16.4915 28.9206Z" stroke="#3E3DF3" stroke-width="2" stroke-linecap="round" stroke-linejoin="round"/>
<path d="M28.5 32.125C30.502 32.125 32.125 30.502 32.125 28.5C32.125 26.498 30.502 24.875 28.5 24.875C26.498 24.875 24.875 26.498 24.875 28.5C24.875 30.502 26.498 32.125 28.5 32.125Z" stroke="#3E3DF3" stroke-width="2" stroke-linecap="round" stroke-linejoin="round"/>
</svg>
