<svg width="57" height="57" viewBox="0 0 57 57" fill="none" xmlns="http://www.w3.org/2000/svg">
<rect width="57" height="57" rx="10" fill="#FF007C" fill-opacity="0.15"/>
<path d="M27.2917 30.9168H29.7083C30.3493 30.9168 30.964 30.6622 31.4172 30.209C31.8704 29.7558 32.125 29.1411 32.125 28.5002C32.125 27.8592 31.8704 27.2445 31.4172 26.7913C30.964 26.3381 30.3493 26.0835 29.7083 26.0835H26.0833C25.3583 26.0835 24.7542 26.3252 24.3917 26.8085L17.625 33.3335" stroke="#FF007C" stroke-width="2" stroke-linecap="round" stroke-linejoin="round"/>
<path d="M31.4598 30.1794L37.5618 24.5074C38.4028 23.6664 39.3743 22.2769 39.3743 20.9477C39.3745 20.2751 39.1705 19.6182 38.7894 19.064C38.4083 18.5098 37.8679 18.0843 37.2398 17.8438C36.6116 17.6032 35.9253 17.559 35.2715 17.7169C34.6177 17.8747 34.0271 18.2273 33.578 18.728C33.5467 18.7619 33.5088 18.789 33.4666 18.8075C33.4244 18.826 33.3788 18.8355 33.3327 18.8355C33.2866 18.8355 33.241 18.826 33.1988 18.8075C33.1565 18.789 33.1186 18.7619 33.0874 18.728C32.6382 18.2273 32.0477 17.8747 31.3939 17.7169C30.7401 17.559 30.0537 17.6032 29.4256 17.8438C28.7975 18.0843 28.2571 18.5098 27.876 19.064C27.4948 19.6182 27.2909 20.2751 27.291 20.9477C27.291 22.3977 28.2601 23.664 29.1035 24.5074L33.3327 28.4394" stroke="#FF007C" stroke-width="2" stroke-linecap="round" stroke-linejoin="round"/>
<path d="M16.416 32.125L23.666 39.375" stroke="#FF007C" stroke-width="2" stroke-linecap="round" stroke-linejoin="round"/>
<path d="M22.459 38.1666L24.3923 36.4749C24.7548 35.9916 25.359 35.7499 26.084 35.7499H30.9173C32.2465 35.7499 33.4548 35.2666 34.3007 34.2999L39.859 28.9833C40.3253 28.5426 40.5974 27.9348 40.6155 27.2935C40.6337 26.6522 40.3963 26.03 39.9557 25.5637C39.515 25.0974 38.9072 24.8252 38.2659 24.8071C37.6246 24.789 37.0024 25.0264 36.5361 25.467" stroke="#FF007C" stroke-width="2" stroke-linecap="round" stroke-linejoin="round"/>
</svg>
