<svg width="57" height="57" viewBox="0 0 57 57" fill="none" xmlns="http://www.w3.org/2000/svg">
<rect width="57" height="57" rx="10" fill="#3E3DF3" fill-opacity="0.15"/>
<path d="M26.084 28.5H30.9173" stroke="#3E3DF3" stroke-width="2" stroke-linecap="round" stroke-linejoin="round"/>
<path d="M26.084 23.667H30.9173" stroke="#3E3DF3" stroke-width="2" stroke-linecap="round" stroke-linejoin="round"/>
<path d="M30.9173 39.3747V35.7497C30.9173 35.1087 30.6627 34.494 30.2095 34.0408C29.7563 33.5876 29.1416 33.333 28.5007 33.333C27.8597 33.333 27.245 33.5876 26.7918 34.0408C26.3386 34.494 26.084 35.1087 26.084 35.7497V39.3747" stroke="#3E3DF3" stroke-width="2" stroke-linecap="round" stroke-linejoin="round"/>
<path d="M21.2493 26.083H18.8327C18.1917 26.083 17.5771 26.3376 17.1238 26.7908C16.6706 27.244 16.416 27.8587 16.416 28.4997V36.958C16.416 37.5989 16.6706 38.2136 17.1238 38.6668C17.5771 39.1201 18.1917 39.3747 18.8327 39.3747H38.166C38.807 39.3747 39.4216 39.1201 39.8749 38.6668C40.3281 38.2136 40.5827 37.5989 40.5827 36.958V24.8747C40.5827 24.2337 40.3281 23.619 39.8749 23.1658C39.4216 22.7126 38.807 22.458 38.166 22.458H35.7493" stroke="#3E3DF3" stroke-width="2" stroke-linecap="round" stroke-linejoin="round"/>
<path d="M21.25 39.375V20.0417C21.25 19.4007 21.5046 18.786 21.9578 18.3328C22.411 17.8796 23.0257 17.625 23.6667 17.625H33.3333C33.9743 17.625 34.589 17.8796 35.0422 18.3328C35.4954 18.786 35.75 19.4007 35.75 20.0417V39.375" stroke="#3E3DF3" stroke-width="2" stroke-linecap="round" stroke-linejoin="round"/>
</svg>
